<?xml version="1.0" encoding="utf-8"?>
<!-- Generator: Adobe Illustrator 16.0.0, SVG Export Plug-In . SVG Version: 6.00 Build 0)  -->
<!DOCTYPE svg PUBLIC "-//W3C//DTD SVG 1.1//EN" "http://www.w3.org/Graphics/SVG/1.1/DTD/svg11.dtd">
<svg version="1.1" id="Layer_1" xmlns="http://www.w3.org/2000/svg" xmlns:xlink="http://www.w3.org/1999/xlink" x="0px" y="0px"
	 width="420px" height="60px" viewBox="20 0 420 60" enable-background="new 20 0 420 60" xml:space="preserve">
<g>
	<g>
		<path fill="#FFFFFF" d="M114.773,43.295C122.82,37.941,126.365,28,126.365,13h-1.447c0,0-0.002,0.059-0.002,0.14
			c-0.046-0.162-0.166-0.347-0.34-0.388l-3.957-1.015c-0.258-0.064-0.521,0.079-0.584,0.339l-4.811,19.254
			c-0.062,0.259-0.117,0.465-0.117,0.465s-0.21-0.051-0.469-0.109L95.167,27.12c-0.257-0.062-0.521,0.101-0.584,0.354l-0.993,3.959
			c-0.064,0.256,0.096,0.518,0.352,0.573l1.642,0.388l-0.289,1.219c2.88,0.684,6.506,3.088,10.346,5.633
			c2.006,1.328,4.094,2.715,6.255,3.99c-4.687,2.453-10.839,3.623-18.895,3.623v1.445c8.541,0,15.252-1.348,20.352-4.234
			c4.319,2.402,8.9,4.234,13.648,4.234v-1.445C122.822,46.859,118.707,45.4,114.773,43.295z M124.912,13.346
			c-0.064,10.74-2.046,18.628-6.029,23.968L124.912,13.346z M113.35,42.408c-2.39-1.371-4.703-2.902-6.912-4.367
			c-3.253-2.156-6.155-4.08-8.774-5.158l20.623,4.833c0.119,0.029,0.238,0.005,0.341-0.052c-0.622,0.799-1.288,1.543-2.005,2.223
			C115.635,40.826,114.541,41.664,113.35,42.408z"/>
	</g>
</g>
<g>
	<g>
		<g>
			<path fill="#FFFFFF" d="M177.747,27.186c0,0-0.303,0.938-0.352,1.062c-0.047,0.127-0.336,0.516-0.271,0.516
				c0.062,0,0.701,0.297,0.701,0.297l2.486,0.771l-0.035,1.172c-0.219,0.033-1.076,0.602-1.201,0.883
				c-0.082,0.184-0.266,0.512-0.438,0.738c2.265,0.914,3.591,2.252,3.646,3.75c0.036,0.266,1.409,5.172,1.489,6.275h10.467
				c0.009-0.045-0.314-6.394-0.317-6.439c0,0-0.603-1.527-1.554-1.684c-0.953-0.156-2.178-0.488-2.688-0.875
				c-0.299-0.229-1.271-0.621-1.725-0.785c-0.21-0.076-0.57-0.699-0.695-0.98s-0.984-0.85-1.203-0.881l-0.035-1.172l2.486-0.773
				c0,0,0.643-0.297,0.704-0.297c0.062,0-0.296-0.471-0.343-0.598c-0.048-0.125-0.281-0.979-0.281-0.979s0.84,1.024,1.266,1.217
				c0,0-0.836-1.568-1.086-2.443s-0.414-2.242-0.414-2.365c0-0.127-0.516-3.797-0.797-4.406s-0.662-1.436-1.312-1.842
				c-0.653-0.406-1.62-0.984-3.014-1.062c-0.021,0-0.041,0-0.062-0.002c-0.021,0.002-0.041,0.002-0.062,0.002
				c-1.392,0.078-2.356,0.656-3.012,1.062c-0.65,0.406-1.033,1.232-1.314,1.842c-0.28,0.61-0.797,4.279-0.797,4.406
				c0,0.123-0.146,1.547-0.396,2.42c-0.25,0.875-1.104,2.389-1.104,2.389C176.909,28.211,177.747,27.186,177.747,27.186z"/>
		</g>
		<g>
			<path fill="#FFFFFF" d="M156.102,37.352V37.29l0.008-0.062c0.679-2.928,4.199-4.32,6.123-5.16c0.004,0-0.002,0.002,0,0
				c-1.168-0.532-1.782-0.934-2.071-0.996c-0.117-0.235-0.371-2.021-0.371-2.021s1.401-1.241,1.719-3.614
				c0,0,0.691,0.383,0.734-1.062c0.03-1.113,0.224-1.549-0.533-1.873c0,0,0.055-0.77,0.078-1.455
				c0.037-1.012,0.225-2.436-1.529-3.578c-0.249-0.164-1.535-0.879-1.543-0.875c-0.459-0.277-1.041-0.455-1.041-0.455l0.02,0.418
				c-0.031-0.031-0.062-0.064-0.092-0.092c-0.117-0.119-0.182-0.58-0.17-0.764c0.021-0.322,0.021-0.322,0.021-0.322
				c-0.83,0.619-1.403,1.42-1.403,1.42l0.075-0.775c0,0-0.154,0.238-2.056,1.424c-1.864,1.164-1.557,2.883-1.504,3.898
				c0.033,0.684,0.103,1.156,0.103,1.156c-0.757,0.324-0.359,0.789-0.342,1.902c0.024,1.539,0.801,1.268,0.801,1.268
				c0.356,2.098,1.46,3.379,1.46,3.379s-0.312,1.798-0.434,2.025c-0.342,0.074-1.135,0.621-2.801,1.314
				c-2.453,1.021-1.683,0.43-3.679,1.426c-3.155,1.578-2.53,8.158-2.53,8.158h9.94L156.102,37.352z"/>
		</g>
		<g>
			<path fill="#FFFFFF" d="M183.193,46.279c0-1.877-2.117-9.812-2.117-9.812c0-1.158-1.523-2.48-4.531-3.256
				c-1.562-0.396-2.867-1.297-2.867-1.297c-0.192-0.107-0.163-1.121-0.163-1.121l-0.97-0.146c0-0.082-0.082-1.296-0.082-1.296
				c1.158-0.387,1.039-2.666,1.039-2.666c0.734,0.404,1.213-1.396,1.213-1.396c0.871-2.509-0.433-2.354-0.433-2.354
				c0.413-1.877,0-4.616,0-4.616c-0.579-5.076-9.302-3.699-8.269-2.041c-2.548-0.469-1.967,5.295-1.967,5.295l0.553,1.49
				c-1.086,0.696-0.332,1.545-0.295,2.52c0.055,1.436,0.938,1.139,0.938,1.139c0.056,2.373,1.23,2.686,1.23,2.686
				c0.221,1.488,0.084,1.234,0.084,1.234l-1.049,0.127c0.047,0.377-0.082,1.01-0.082,1.01c-1.236,0.549-1.498,0.867-2.723,1.397
				c-2.367,1.029-4.939,2.369-5.396,4.175c-0.457,1.805-1.812,8.928-1.812,8.928h27.697V46.279L183.193,46.279z"/>
		</g>
	</g>
</g>
<g>
	<g id="Layer_1_4_">
		<path fill="#FFFFFF" d="M245.705,12.898h-31.837c-2.001,0-3.631,1.627-3.631,3.63v21.32c0,2,1.629,3.631,3.631,3.631h14.339
			c0.673,1.746,4.46,4.178,4.46,4.178v3.203h9.599v-7.381h3.439c2,0,3.629-1.631,3.629-3.631v-21.32
			C249.334,14.526,247.706,12.898,245.705,12.898z M245.534,37.676h-3.27v-5.531c0-1.521-2.25-1.521-2.25,0v2.215
			c0,0.246-0.637,0.246-0.637,0v-3.812c0-1.521-2.271-1.521-2.271,0v3.812c0,0.246-0.633,0.246-0.633,0v-5.207
			c0-1.516-2.271-1.516-2.271,0v5.207c0,0.246-0.637,0.246-0.637,0V23.797c0-1.516-2.271-1.516-2.271,0v13.467
			c0,0.268-0.717,0.268-0.717,0V32.2c0-1.844-2.479-1.762-2.479,0v5.479h-14.06V16.7h31.495L245.534,37.676L245.534,37.676z
			 M247.436,27.945c-0.408,0-0.742-0.334-0.742-0.742c0-0.41,0.334-0.743,0.742-0.743c0.41,0,0.742,0.333,0.742,0.743
			C248.178,27.611,247.846,27.945,247.436,27.945z"/>
		<circle fill="#FFFFFF" cx="230.15" cy="25.519" r="0.646"/>
		<path fill="#FFFFFF" d="M234.743,24.873c0.359,0,0.646,0.289,0.646,0.646c0,0.354-0.285,0.646-0.646,0.646
			c-0.356,0-0.646-0.292-0.646-0.646C234.098,25.162,234.387,24.873,234.743,24.873z"/>
		<circle fill="#FFFFFF" cx="232.346" cy="21.219" r="0.647"/>
		<circle fill="#FFFFFF" cx="230.553" cy="21.867" r="0.646"/>
		<circle fill="#FFFFFF" cx="234.219" cy="21.868" r="0.647"/>
		<circle fill="#FFFFFF" cx="229.697" cy="23.54" r="0.649"/>
		<circle fill="#FFFFFF" cx="235.152" cy="23.54" r="0.649"/>
	</g>
</g>
<g>
	<g id="Isolation_Mode_4_">
		<path fill="#FFFFFF" d="M306.182,26.65c0.664-5.017-1.371-11.023-7.379-13.721c-4.752-2.132-13.137-2.128-17.561,1.904
			c-3.857,3.516-4.728,8.508-4.728,8.508s-0.397,1.854-0.397,2.472c0,0.59,0.661,0.819,0.588,1.123
			c-0.077,0.301-0.818,1.168-1.388,2.111c-0.565,0.947-2.019,3.049-2.019,3.615s0.341,0.775,1.021,1.004
			c0.683,0.229,1.211,0.415,1.322,0.682c0.113,0.264-0.322,1.021-0.348,1.562c-0.021,0.459,0.147,0.511,0.493,0.646
			c0.427,0.166,1.082,0.188,1.082,0.188s-1.46,0.275-1.315,0.876c0.151,0.62,1.031,0.745,1.108,1.231
			c0.041,0.244-0.743,1.504-0.643,2.728c0.136,1.595,1.647,2.312,4.047,1.925c2.285-0.365,3.359-0.707,3.652,0.553
			c0.188,0.795,0.166,2.135,0.506,3.646c0.016,0.062,0.027,0.125,0.043,0.188h17.541c-0.752-1.367-1.737-3.562-1.737-6.354
			c0-1.915,0.19-4.76,1.563-6.271C303.363,33.365,305.65,30.68,306.182,26.65z M298.939,30.625c0,0-0.229,2.509-2.069,2.831
			c-1.578,0.276-2.625-1.243-2.625-1.243l-0.519,2.45h-1.104c0,0-1.002-3.692-1.69-4.313c-0.688-0.623-1.763-0.795-1.763-0.795
			s-1.448-0.104-2.382-1.035c-0.935-0.933-0.069-2.07-0.069-2.07s-1.174,0.066-3.556-0.448c-2.384-0.521-1.657-2.039-1.657-2.039
			s-0.621,0.104-1.141-0.551c-0.367-0.468-0.637-1.608,0.035-2.936c0.602-1.189,1.656-1.603,1.656-1.603s-0.393-0.496,0.434-1.188
			c0.432-0.361,1.189-0.35,1.189-0.35s0.184-0.799,1.327-1.314c1.298-0.587,2.158-0.102,2.158-0.102s0.346-0.758,1.349-1.104
			c1.002-0.345,2.002,0.241,2.002,0.241s0.678-0.613,1.92-0.613c1.241,0,1.705,0.648,1.705,0.648s0.748-0.387,1.656-0.069
			c0.856,0.296,1.104,1.129,1.104,1.129s0.621-0.439,1.482-0.095c0.864,0.346,1.211,1.278,1.211,1.278s0.594-0.088,1.186,0.438
			c0.439,0.391,0.3,1.115,0.3,1.115s0.729,0.244,1.171,1.121c0.406,0.813-0.17,1.503-0.17,1.503s1.209,0.896,1.381,3.245
			c0.211,2.863-1.622,3.42-1.622,3.42s0.36,0.907-0.275,1.896C300.695,31.42,298.939,30.625,298.939,30.625z"/>
	</g>
</g>
<g>
	<g>
		<g>
			<rect x="38" y="28" fill="#333333" width="24" height="5"/>
			<rect x="38" y="36" fill="#333333" width="24" height="6"/>
			<rect x="38" y="18" fill="#333333" width="24" height="6"/>
			<rect x="38" y="27" fill="#333333" width="24" height="6"/>
		</g>
	</g>
	<rect x="20" fill="none" width="60" height="60"/>
</g>
<g>
	<g>
		<path fill="#FFFFFF" d="M368.5,16.5h-38v28h7v-2h-2v-2h6v2h-2v2h20v-2h-2v-2h6v2h-2v2h7V16.5z M345.5,31.5h-12v-12h12V31.5z
			 M358.5,29.5h-10v-2h10V29.5z M365.5,25.5h-17v-2h17V25.5z M365.5,21.5h-17v-2h17V21.5z"/>
		<path fill="#FFFFFF" d="M343,26.5h-1.229c-0.506,0-1.094,0.5-1.729,0.5c-0.636,0-1.225-0.5-1.729-0.5H337l-2,4h10L343,26.5z"/>
		<circle fill="#FFFFFF" cx="340.042" cy="23.188" r="2.312"/>
	</g>
</g>
<g>
	<path fill="#FFFFFF" d="M415.535,36.998c-2.002,0-3.619-1.622-3.619-3.62c0-0.972,0.385-1.857,1.009-2.505l-3.002-3.003
		c-1.395,1.418-2.254,3.362-2.254,5.508c0,4.345,3.521,7.866,7.866,7.866c2.146,0,4.09-0.858,5.509-2.253l-3.003-3.003
		C417.391,36.613,416.509,36.998,415.535,36.998z"/>
	<polygon fill="#FFFFFF" points="381,40.915 396.79,40.915 396.79,36.818 385.267,36.818 385.267,29.967 392.692,29.967 
		392.692,25.868 385.267,25.868 385.267,21.191 396.79,21.191 396.79,17.092 381,17.092 	"/>
	<polygon fill="#FFFFFF" points="403.365,25.884 407.968,25.884 399.121,17.049 399.121,40.915 405.765,40.915 405.765,36.818 
		403.365,36.818 	"/>
	<path fill="#FFFFFF" d="M439,41.123l-0.013-7.348c-0.015-2.473-0.737-3.907-1.55-4.837c-1.43-1.951-3.739-3.218-6.345-3.218
		c-1.306,0-2.533,0.317-3.62,0.881v-9.553h-4.264v24.079l4.262,4.255l0.002-0.002v0.002l0.02-12.165
		c0.184-1.825,1.725-3.252,3.601-3.252c2.001,0,3.652,1.622,3.652,3.62l-0.004,7.537H439z"/>
</g>
</svg>
